<svg xmlns="http://www.w3.org/2000/svg" viewBox="0 0 1654 1654"><g fill="#FF5102"><path d="M593 231a231 231 0 1 1 462 0 231 231 0 0 1-462 0ZM0 825a231 231 0 1 1 462 0 231 231 0 0 1-462 0Zm594 597a231 231 0 1 1 462 0 231 231 0 0 1-462 0Zm597-597a230 230 0 1 1 459 0c0 128-103 231-229 231a230 230 0 0 1-230-231Z"/><path d="M69 987c-90-90-90-237 0-327L660 69a231.224 231.224 0 1 1 327 327L396 987c-90 90-237 90-327 0Zm594 599c-91-91-91-237 0-327l593-593a231.224 231.224 0 0 1 327 327l-594 593c-90 90-236 90-326 0Z" opacity=".7"/><path d="M0 825c0-128 103-231 231-231h1188a231 231 0 1 1 0 462H231A231 231 0 0 1 0 825Z" opacity=".7"/></g></svg>
